{"title":"Seconds.Apart.2011.720p.BRRip.x264.Feel-Free","uid":6446962,"size":2146070139,"categoryP":"video","categoryS":"hd___movies","magnet":"?xt=urn:btih:f493e42235a53417dc296eff07306dfdb2f3e053&amp;dn=Seconds.Apart.2011.720p.BRRip.x264.Feel-Free&amp;tr=udp%3A%2F%2Ftracker.openbittorrent.com%3A80&amp;tr=udp%3A%2F%2Fopen.demonii.com%3A1337&amp;tr=udp%3A%2F%2Ftracker.coppersurfer.tk%3A6969&amp;tr=udp%3A%2F%2Fexodus.desync.com%3A6969","seeders":0,"leechers":0,"uploader":"qwersd","files":-1,"time":1307299657,"description":"Genre:Horror | Thriller\nLanguage:English\nIMDb: http://www.imdb.com/title/tt1601475/\nSource:720p.BluRay.x264-7SinS Thanks!\nSubtitles:Romana\n\nFormat : MPEG-4\nFormat profile : Base Media\nCodec ID : isom\nFile size : 1.99 GiB\nDuration : 1h 25mn\nOverall bit rate : 3 354 Kbps\n\nVideo\nID : 1\nFormat : AVC\nFormat/Info : Advanced Video Codec\nFormat profile : &lt;a class=&quot;__cf_email__&quot; href=&quot;/cdn-cgi/l/email-protection&quot; data-cfemail=&quot;420a2b252a020e766c73&quot;&gt;[email&amp;#160;protected]&lt;/a&gt;&lt;script cf-hash='f9e31' type=&quot;text/javascript&quot;&gt;\n/* &lt;![CDATA[ */!function(){try{var t=&quot;currentScript&quot;in document?document.currentScript:function(){for(var t=document.getElementsByTagName(&quot;script&quot;),e=t.length;e--;)if(t[e].getAttribute(&quot;cf-hash&quot;))return t[e]}();if(t&amp;&amp;t.previousSibling){var e,r,n,i,c=t.previousSibling,a=c.getAttribute(&quot;data-cfemail&quot;);if(a){for(e=&quot;&quot;,r=parseInt(a.substr(0,2),16),n=2;a.length-n;n+=2)i=parseInt(a.substr(n,2),16)^r,e+=String.fromCharCode(i);e=document.createTextNode(e),c.parentNode.replaceChild(e,c)}}}catch(u){}}();/* ]]&gt; */&lt;/script&gt;\nFormat settings, CABAC : Yes\nFormat settings, ReFrames : 3 frames\nCodec ID : avc1\nCodec ID/Info : Advanced Video Coding\nDuration : 1h 25mn\nBit rate mode : Variable\nBit rate : 3 000 Kbps\nMaximum bit rate : 24.8 Mbps\nWidth : 1 280 pixels\nHeight : 720 pixels\nDisplay aspect ratio : 16:9\nFrame rate mode : Constant\nFrame rate : 25.000 fps\nColor space : YUV\nChroma subsampling : 4:2:0\nBit depth : 8 bits\nScan type : Progressive\nBits/(Pixel*Frame) : 0.130\nStream size : 1.73 GiB (87%)\nWriting library : x264\n\nAudio\nID : 2\nFormat : AAC\nFormat/Info : Advanced Audio Codec\nFormat version : Version 4\nFormat profile : LC\nFormat settings, SBR : No\nCodec ID : 40\nDuration : 1h 25mn\nBit rate mode : Variable\nBit rate : 438 Kbps\nMaximum bit rate : 554 Kbps\nChannel(s) : 6 channels\nChannel positions : Front: L C R, Side: L R, LFE\nSampling rate : 48.0 KHz\nStream size : 267 MiB (13%)\n\n\nPlot:\nSeth and Jonah are twins with a dangerous ability. Telekinesis. Things start to spiral out of their control as their classmates end up dying in twisted and bizarre ways..\n\n\nScreens:\n &lt;a href=&quot;\nhttp://www.pix2links.com/images/95091479360288406195.png&quot; rel=&quot;nofollow&quot; target=&quot;_NEW&quot;&gt;\nhttp://www.pix2links.com/images/95091479360288406195.png&lt;/a&gt; &lt;a href=&quot;\nhttp://www.pix2links.com/images/36712915738374218374.png&quot; rel=&quot;nofollow&quot; target=&quot;_NEW&quot;&gt;\nhttp://www.pix2links.com/images/36712915738374218374.png&lt;/a&gt; &lt;a href=&quot;\nhttp://www.pix2links.com/images/34746679472077423768.png&quot; rel=&quot;nofollow&quot; target=&quot;_NEW&quot;&gt;\nhttp://www.pix2links.com/images/34746679472077423768.png&lt;/a&gt; &lt;a href=&quot;\nhttp://www.pix2links.com/images/54160116289236683119.png&quot; rel=&quot;nofollow&quot; target=&quot;_NEW&quot;&gt;\nhttp://www.pix2links.com/images/54160116289236683119.png&lt;/a&gt;\n\nGreets:\n\nINK,CRYS,IMAGINE,LKRG,FXG,3Li,FLAWL3SS,TA,iLLUSiON,ViSiON,DTRG SAFCuk009,LU,TheFalcon007,MYSTiC,PrisM,Noir,WBZ,LAP,Rx,Kingdom,SAFCuk009+Fabreezy,HDLiTE,TWiZTED,ExtraTorrentRG.ELEKTRI4KA,MAGNAT,CM8\nAnd to all the other p2p grps past and present \n\n\n\n\nMake sure its a real Feel-Free release @\n\n","torrent":{"xt":"urn:btih:f493e42235a53417dc296eff07306dfdb2f3e053","amp;dn":"Seconds.Apart.2011.720p.BRRip.x264.Feel-Free","amp;tr":["udp%3A%2F%2Ftracker.openbittorrent.com%3A80","udp%3A%2F%2Fopen.demonii.com%3A1337","udp%3A%2F%2Ftracker.coppersurfer.tk%3A6969","udp%3A%2F%2Fexodus.desync.com%3A6969"],"infoHash":"f493e42235a53417dc296eff07306dfdb2f3e053","infoHashBuffer":{"type":"Buffer","data":[244,147,228,34,53,165,52,23,220,41,110,255,7,48,109,253,178,243,224,83]},"announce":[],"urlList":[]}}